<svg width="168" height="27" viewBox="0 0 168 27" fill="none" xmlns="http://www.w3.org/2000/svg">
  <path d="M41.2976 20.2161V22.84H34.0186V20.2161H36.2226V8.51402H34.0186V5.85995H41.2976V8.51402H39.1516V20.2161H41.2976ZM44.9206 22.84V5.85995H50.0826L53.9106 21.513H53.9686L57.7676 5.85995H62.9006V22.84H59.8266L60.0296 7.24731H60.0006L56.0856 22.84H51.7356L47.8786 7.24731H47.8206L47.9946 22.84H44.9206ZM65.0864 22.84L70.3064 5.85995H75.1493L80.5144 22.84H77.3534L75.9614 18.0446H69.6104L68.2183 22.84H65.0864ZM72.7714 7.15683L70.3064 15.6619H75.2654L72.7714 7.15683ZM89.3712 23.1718C87.7859 23.1718 86.3939 22.84 85.1952 22.1765C84.0159 21.513 83.1072 20.5378 82.4692 19.251C81.8312 17.944 81.5316 16.3455 81.5702 14.4555C81.5896 12.5454 81.9472 10.9268 82.6432 9.59978C83.3586 8.27274 84.3349 7.26738 85.5722 6.58379C86.8096 5.90009 88.2402 5.55835 89.8642 5.55835C92.0876 5.55835 93.8081 6.06098 95.0261 7.06635C96.2441 8.07161 97.0562 9.52937 97.4622 11.4395L94.6202 11.8618C94.3302 10.5951 93.7309 9.71033 92.8222 9.2077C91.9329 8.70497 90.9469 8.4537 89.8642 8.4537C88.0082 8.4537 86.6452 8.97641 85.7752 10.022C84.9246 11.0675 84.4895 12.465 84.4701 14.2143C84.4701 16.1445 84.9632 17.6323 85.9492 18.6779C86.9352 19.7034 88.3466 20.2161 90.1832 20.2161C91.3046 20.2161 92.3196 19.9446 93.2282 19.4018C94.1369 18.8387 94.7266 17.944 94.9972 16.7175H91.4011V14.4555H97.7812V22.84H95.7802L95.1132 19.8843H95.0552C94.8619 20.387 94.5235 20.8896 94.0401 21.3923C93.5761 21.8949 92.9576 22.3172 92.1842 22.659C91.4109 23.0008 90.4732 23.1718 89.3712 23.1718ZM108.049 20.2161V22.84H100.77V20.2161H102.974V8.51402H100.77V5.85995H108.049V8.51402H105.903V20.2161H108.049ZM122.837 5.85995H125.911V22.84H120.285L114.688 7.21715H114.63V22.84H111.585V5.85995H116.805L122.779 21.4828H122.837V5.85995ZM136.596 20.2161V22.84H129.317V20.2161H131.521V8.51402H129.317V5.85995H136.596V8.51402H134.45V20.2161H136.596ZM143.322 22.84H140.422V5.85995H152.051V8.51402H143.322V12.6761H149.992V15.1794H143.322V22.84ZM159.015 22.84V16.8382L153.447 5.85995H156.753L160.552 14.1539L164.293 5.85995H167.599L161.944 16.808V22.84H159.015Z" fill="#000"/>
</svg>
